<?xml version="1.0" standalone="no"?><!DOCTYPE svg PUBLIC "-//W3C//DTD SVG 1.1//EN" "http://www.w3.org/Graphics/SVG/1.1/DTD/svg11.dtd"><svg t="1677083040856" class="icon" viewBox="0 0 1024 1024" version="1.1" xmlns="http://www.w3.org/2000/svg" p-id="4685" xmlns:xlink="http://www.w3.org/1999/xlink" width="20" height="20"><path d="M530.715934 565.725931m-402.93723 0a402.93723 402.93723 0 1 0 805.87446 0 402.93723 402.93723 0 1 0-805.87446 0Z" fill="#FE951D" p-id="4686"></path><path d="M943.702273 587.415068c0-222.533974-180.403256-402.93723-402.93723-402.93723-119.902583 0-227.512747 52.431628-301.324484 135.548519a401.243303 401.243303 0 0 1 262.821975-97.664065c222.533974 0 402.93723 180.403256 402.93723 402.93723A401.334866 401.334866 0 0 1 803.6328 892.745461c85.703564-73.937637 140.069474-183.253174 140.069473-305.330393z" fill="#F55C55" p-id="4687"></path><path d="M789.772354 917.009824c163.39531-151.080001 173.387192-406.004612 22.307191-569.411367-81.400073-88.038437-192.947474-131.451046-304.094284-129.219183a401.243303 401.243303 0 0 1 250.140411 126.678292C909.194228 508.452876 899.213791 763.411823 735.807036 914.491824a401.334866 401.334866 0 0 1-265.317084 106.911992c112.474483 12.773127 229.641602-21.517455 319.282402-104.393992z" fill="#F55C55" p-id="4688"></path><path d="M152.455104 819.048178a19.045236 19.045236 0 0 1-16.538682-9.579845c-5.470927-9.545509-10.621382-19.457273-15.291127-29.266028a19.045236 19.045236 0 1 1 34.439373-16.298327c4.246264 8.973236 8.927455 17.935027 13.906227 26.622127a19.056682 19.056682 0 0 1-16.504345 28.522073z" fill="" p-id="4689"></path><path d="M502.262534 1021.895971c-132.412465 0-254.581247-60.351882-335.191584-165.592838a19.045236 19.045236 0 0 1 30.250336-23.1656c73.342473 95.741228 184.489283 150.656519 304.952693 150.656519 211.672238 0 383.891994-172.20831 383.891994-383.891993s-172.219756-383.880548-383.903439-383.880548S118.37054 388.229821 118.37054 599.913504A386.467221 386.467221 0 0 0 126.473922 678.715459a19.045236 19.045236 0 1 1-37.289291 7.782909A424.248667 424.248667 0 0 1 80.280067 599.913504c0-232.686093 189.296374-421.982467 421.982467-421.982466s421.982467 189.296374 421.982466 421.982466S734.960072 1021.895971 502.262534 1021.895971z" fill="" p-id="4690"></path><path d="M376.637224 557.725558m-37.998909 0a37.998909 37.998909 0 1 0 75.997818 0 37.998909 37.998909 0 1 0-75.997818 0Z" fill="" p-id="4691"></path><path d="M627.893454 557.725895m-32.90802 18.999455a37.998909 37.998909 0 1 0 65.816041-37.99891 37.998909 37.998909 0 1 0-65.816041 37.99891Z" fill="" p-id="4692"></path><path d="M506.050979 743.588296c-31.772582 0-57.616419-21.746364-57.616418-48.379937a12.693009 12.693009 0 0 1 25.397464 0c0 12.452655 14.753191 22.982473 32.218954 22.982473s32.218955-10.529818 32.218955-22.982473a12.693009 12.693009 0 0 1 25.397464 0c-0.011445 26.679355-25.855282 48.379937-57.616419 48.379937z" fill="" p-id="4693"></path><path d="M507.813579 222.362292S534.470043 101.269383 367.98446 64.094546c0 0 8.469636 149.191501 139.829119 158.267746z" fill="#009245" p-id="4694"></path><path d="M497.970488 228.691629l-16.389891-1.144546C347.199515 218.26482 304.610978 91.105819 300.87976 25.18l-1.430682-25.18L324.068251 5.482373c210.184329 46.926364 177.805138 205.57181 177.404547 207.162728zM342.770124 49.810619C351.537342 92.330482 379.212451 171.681819 465.78587 187.281974 465.991888 154.513637 452.749497 83.82651 342.770124 49.810619z" fill="" p-id="4695"></path><path d="M434.883143 238.832302s201.211092 136.258137 389.454484-140.012247c0 0-277.769738-92.616619-389.454484 140.012247z" fill="#009245" p-id="4696"></path><path d="M592.910535 273.111438c-81.777773 0-138.295428-37.0146-139.417083-37.77l-13.5972-9.213591 7.107627-14.798973C569.653371-44.202346 874.5145 54.022546 877.581882 55.041191l23.898109 8.011819-14.180918 20.784945c-103.180773 151.423365-211.706574 189.273483-294.388538 189.273483z m-103.46691-61.0615C536.64468 235.776365 688.811999 288.368229 840.258254 84.284328c-68.672728-16.080864-257.660074-42.107828-350.826075 127.76561z" fill="" p-id="4697"></path><path d="M220.017623 538.783331a19.297036 19.297036 0 0 1-3.548091-0.331918A19.056682 19.056682 0 0 1 201.281414 516.190004c9.556955-50.577464 29.8383-89.663692 60.271764-116.171365a19.045236 19.045236 0 0 1 25.019764 28.716646c-23.829437 20.762055-39.933191 52.557528-47.864892 94.528009a19.056682 19.056682 0 0 1-18.690427 15.520037zM316.972069 409.873176a19.056682 19.056682 0 0 1-4.578182-37.541092c2.952927-0.732509 4.578182-0.972864 4.578182-0.972863a19.182582 19.182582 0 0 1 21.631909 16.023636 18.942227 18.942227 0 0 1-15.600154 21.563237l-1.419237 0.320472a19.182582 19.182582 0 0 1-4.612518 0.60661z" fill="#FFFFFF" p-id="4698"></path></svg>